<?xml version="1.0" encoding="UTF-8"?>
<svg width="512px" height="328px" viewBox="0 0 512 328" version="1.1" xmlns="http://www.w3.org/2000/svg" xmlns:xlink="http://www.w3.org/1999/xlink">
    <title>eye</title>
    <g id="Page-1" stroke="none" stroke-width="1" fill="none" fill-rule="evenodd">
        <g id="eye" fill="#A8ABB0" fill-rule="nonzero">
            <path d="M508.745,154.041 C504.171,147.784 395.188,0.835 255.997,0.835 C116.806,0.835 7.818,147.784 3.249,154.035 C-1.083,159.971 -1.083,168.022 3.249,173.958 C7.818,180.215 116.806,327.164 255.997,327.164 C395.188,327.164 504.171,180.214 508.745,173.963 C513.083,168.028 513.083,159.971 508.745,154.041 Z M255.997,293.406 C153.468,293.406 64.667,195.873 38.38,163.988 C64.633,132.075 153.248,34.593 255.997,34.593 C358.521,34.593 447.316,132.109 473.614,164.011 C447.361,195.923 358.746,293.406 255.997,293.406 Z" id="Shape"></path>
            <path d="M255.997,62.725 C200.155,62.725 154.722,108.158 154.722,164 C154.722,219.842 200.155,265.275 255.997,265.275 C311.839,265.275 357.272,219.842 357.272,164 C357.272,108.158 311.839,62.725 255.997,62.725 Z M255.997,231.516 C218.767,231.516 188.481,201.229 188.481,164 C188.481,126.771 218.768,96.484 255.997,96.484 C293.226,96.484 323.513,126.771 323.513,164 C323.513,201.229 293.227,231.516 255.997,231.516 Z" id="Shape"></path>
        </g>
    </g>
</svg>